<?xml version="1.0" encoding="UTF-8"?>
<svg id="Layer_1" data-name="Layer 1" xmlns="http://www.w3.org/2000/svg" viewBox="0 0 306 60">
  <defs>
    <style>
      .cls-1 {
        fill: none;
        stroke: #fff;
        stroke-linecap: round;
        stroke-linejoin: round;
        stroke-width: 2px;
      }

      .cls-2 {
        fill: #00598a;
      }

      .cls-3 {
        fill: #f8fafc;
      }

      .cls-4 {
        fill: #cad5e2;
      }
    </style>
  </defs>
  <rect class="cls-2" width="60" height="60" rx="6" ry="6"/>
  <g>
    <path class="cls-1" d="M48.81,27.85c1.01-.45,1.47-1.63,1.02-2.64-.21-.47-.59-.84-1.06-1.04l-17.13-7.8c-1.05-.48-2.26-.48-3.32,0l-17.13,7.79c-1.01.44-1.47,1.62-1.03,2.63.2.46.57.83,1.03,1.03l17.13,7.81c1.05.48,2.26.48,3.32,0l17.17-7.79Z"/>
    <path class="cls-1" d="M49.97,26v11.99"/>
    <path class="cls-1" d="M17.99,31v6.99c0,3.31,5.37,6,11.99,6s11.99-2.68,11.99-6v-6.99"/>
  </g>
  <g>
    <path class="cls-3" d="M69.48,27.54V7.17h7.94c1.55,0,2.87.29,3.95.88,1.08.59,1.91,1.4,2.48,2.43.57,1.03.85,2.22.85,3.56s-.29,2.54-.87,3.56c-.58,1.03-1.42,1.83-2.52,2.41-1.1.58-2.43.87-4,.87h-5.11v-3.36h4.44c.86,0,1.56-.15,2.11-.44.55-.3.96-.7,1.23-1.22.27-.52.4-1.12.4-1.8s-.13-1.28-.4-1.8c-.27-.51-.68-.92-1.24-1.2-.56-.29-1.26-.43-2.12-.43h-2.99v16.93h-4.17Z"/>
    <path class="cls-3" d="M87.52,27.54v-15.29h3.96v2.67h.16c.28-.95.75-1.66,1.42-2.15.66-.48,1.42-.72,2.28-.72.21,0,.44.01.68.03.25.02.46.06.64.1v3.66c-.18-.06-.45-.11-.79-.15-.35-.04-.67-.05-.98-.05-.62,0-1.18.13-1.68.4-.5.27-.89.64-1.17,1.12-.28.48-.42,1.04-.42,1.67v8.7h-4.1Z"/>
    <path class="cls-3" d="M105.08,27.84c-1.53,0-2.86-.33-3.98-.99-1.12-.66-1.98-1.58-2.59-2.76-.61-1.18-.91-2.55-.91-4.12s.3-2.97.91-4.15c.61-1.18,1.47-2.1,2.59-2.76,1.12-.66,2.45-.99,3.98-.99s2.87.33,3.99.99c1.12.66,1.98,1.58,2.58,2.76.61,1.18.91,2.56.91,4.15s-.3,2.94-.91,4.12c-.61,1.18-1.47,2.1-2.58,2.76-1.12.66-2.45.99-3.99.99ZM105.08,24.61c.73,0,1.34-.2,1.83-.61.49-.41.86-.96,1.11-1.67.25-.71.37-1.5.37-2.39s-.12-1.7-.37-2.41c-.25-.7-.62-1.25-1.11-1.65-.49-.4-1.1-.6-1.83-.6s-1.34.2-1.83.6c-.49.4-.85.95-1.1,1.65-.25.7-.37,1.5-.37,2.41s.12,1.68.37,2.39c.25.71.61,1.26,1.1,1.67.49.41,1.1.61,1.83.61Z"/>
    <path class="cls-3" d="M123.92,12.26v3.13h-9.98v-3.13h9.98ZM116.63,27.54V11.08c0-1.08.22-1.99.65-2.71.43-.72,1.02-1.26,1.77-1.62.75-.36,1.59-.54,2.54-.54.65,0,1.24.05,1.77.16.53.1.92.19,1.17.27l-.74,3.09c-.17-.05-.38-.09-.61-.14-.23-.05-.49-.07-.76-.07-.62,0-1.06.15-1.32.44-.26.3-.39.71-.39,1.25v16.32h-4.09Z"/>
    <path class="cls-3" d="M127.9,27.8c-.67,0-1.23-.23-1.68-.68-.46-.45-.68-1.01-.68-1.67s.23-1.22.68-1.67c.46-.45,1.02-.68,1.68-.68s1.23.23,1.68.68c.46.45.68,1.01.68,1.67s-.23,1.22-.68,1.67c-.46.45-1.02.68-1.68.68Z"/>
    <path class="cls-3" d="M144.36,7.17v20.37h-4.17V7.17h4.17ZM147.35,27.54h-5.28v-3.6h5.07c1.31,0,2.41-.23,3.3-.7s1.56-1.18,2-2.16c.45-.98.67-2.22.67-3.75s-.23-2.75-.68-3.73-1.12-1.69-2-2.15c-.88-.46-1.97-.7-3.27-.7h-5.2v-3.6h5.44c2.04,0,3.8.41,5.27,1.22,1.47.82,2.6,1.98,3.4,3.5s1.19,3.33,1.19,5.45-.4,3.95-1.19,5.47c-.79,1.52-1.93,2.69-3.41,3.51-1.48.82-3.26,1.22-5.33,1.22Z"/>
    <path class="cls-3" d="M162.36,10.26c-.62,0-1.15-.21-1.59-.62s-.66-.91-.66-1.49.22-1.08.66-1.49.97-.62,1.59-.62,1.15.21,1.59.62c.44.41.66.91.66,1.49s-.22,1.08-.66,1.49c-.44.41-.97.62-1.59.62ZM160.31,27.54v-15.29h4.1v15.29h-4.1Z"/>
    <path class="cls-3" d="M174.8,27.84c-1.56,0-2.9-.32-4.03-.96-1.13-.64-2-1.54-2.6-2.72-.61-1.18-.91-2.57-.91-4.18s.3-2.96.9-4.14c.6-1.18,1.45-2.11,2.56-2.78,1.1-.67,2.4-1,3.88-1,1,0,1.94.16,2.8.48.87.32,1.63.8,2.28,1.44s1.17,1.45,1.54,2.41c.37.97.55,2.11.55,3.42v1.15h-12.84v-2.57h10.83l-1.91.68c0-.79-.12-1.48-.36-2.07s-.6-1.04-1.08-1.37c-.48-.32-1.07-.49-1.77-.49s-1.31.16-1.81.49-.87.77-1.13,1.33-.38,1.2-.38,1.92v1.82c0,.88.15,1.63.44,2.23s.71,1.05,1.24,1.35,1.16.45,1.87.45c.48,0,.92-.07,1.31-.21s.73-.34,1-.61c.28-.27.49-.6.64-.99l3.72.7c-.25.84-.67,1.57-1.29,2.21-.61.63-1.37,1.12-2.29,1.47s-1.97.52-3.17.52Z"/>
    <path class="cls-3" d="M191.37,33.58c-1.28,0-2.39-.16-3.34-.49s-1.72-.77-2.31-1.33-1-1.21-1.23-1.93l3.53-.98c.13.28.33.56.59.83.27.27.63.49,1.07.66.45.17,1,.26,1.65.26,1.05,0,1.87-.24,2.47-.72s.9-1.22.9-2.24v-2.82h-.31c-.18.41-.45.81-.79,1.19s-.8.7-1.36.94c-.56.24-1.26.36-2.08.36-1.15,0-2.19-.27-3.13-.81-.94-.54-1.69-1.36-2.25-2.46-.56-1.1-.84-2.5-.84-4.18s.29-3.16.85-4.32c.57-1.16,1.33-2.03,2.27-2.61.94-.58,1.98-.88,3.11-.88.86,0,1.58.14,2.16.43s1.05.65,1.42,1.08c.36.43.63.85.81,1.25h.18v-2.57h4.03v15.16c0,1.38-.32,2.52-.95,3.43-.63.91-1.51,1.59-2.62,2.05s-2.39.68-3.83.68ZM191.44,24.2c.7,0,1.3-.17,1.78-.52.49-.35.86-.85,1.11-1.5.25-.65.38-1.43.38-2.34s-.13-1.69-.38-2.37c-.25-.67-.63-1.2-1.11-1.57-.49-.37-1.08-.56-1.78-.56s-1.32.19-1.81.58c-.49.39-.86.92-1.11,1.59-.25.67-.38,1.45-.38,2.32s.12,1.67.38,2.32c.25.65.62,1.16,1.11,1.51s1.09.53,1.8.53Z"/>
    <path class="cls-3" d="M209.11,27.84c-1.53,0-2.86-.33-3.98-.99-1.12-.66-1.98-1.58-2.59-2.76-.61-1.18-.91-2.55-.91-4.12s.3-2.97.91-4.15c.61-1.18,1.47-2.1,2.59-2.76,1.12-.66,2.45-.99,3.98-.99s2.87.33,3.99.99c1.12.66,1.98,1.58,2.58,2.76.61,1.18.91,2.56.91,4.15s-.3,2.94-.91,4.12c-.61,1.18-1.47,2.1-2.58,2.76-1.12.66-2.45.99-3.99.99ZM209.11,24.61c.73,0,1.34-.2,1.83-.61.49-.41.86-.96,1.11-1.67.25-.71.37-1.5.37-2.39s-.12-1.7-.37-2.41c-.25-.7-.62-1.25-1.11-1.65-.49-.4-1.1-.6-1.83-.6s-1.34.2-1.83.6c-.49.4-.85.95-1.1,1.65-.25.7-.37,1.5-.37,2.41s.12,1.68.37,2.39c.25.71.61,1.26,1.1,1.67.49.41,1.1.61,1.83.61Z"/>
    <path class="cls-3" d="M230.34,7.17v20.37h-4.17V7.17h4.17Z"/>
    <path class="cls-3" d="M238.04,18.69v8.85h-4.1v-15.29h3.87l.07,3.81h-.25c.4-1.28,1.01-2.26,1.83-2.96s1.87-1.05,3.17-1.05c1.06,0,1.98.23,2.77.69.79.46,1.4,1.12,1.83,1.98s.65,1.89.65,3.08v9.72h-4.1v-9.01c0-.95-.24-1.69-.73-2.23-.49-.54-1.16-.81-2.03-.81-.57,0-1.09.13-1.54.38-.45.25-.8.61-1.05,1.09-.25.47-.38,1.05-.38,1.74Z"/>
    <path class="cls-3" d="M255.63,27.84c-.97,0-1.83-.17-2.6-.51s-1.38-.85-1.82-1.53c-.44-.68-.66-1.52-.66-2.54,0-.85.16-1.56.47-2.13s.74-1.03,1.29-1.38c.54-.35,1.16-.61,1.85-.79.69-.18,1.41-.31,2.17-.38.88-.09,1.6-.18,2.14-.25.54-.08.94-.2,1.19-.37.25-.17.38-.42.38-.75v-.07c0-.44-.09-.81-.27-1.11s-.45-.53-.81-.69c-.36-.16-.79-.24-1.31-.24s-.99.08-1.38.24c-.39.16-.71.37-.96.64-.25.26-.43.56-.55.89l-3.76-.62c.26-.89.7-1.65,1.31-2.27.61-.62,1.37-1.09,2.28-1.42s1.93-.49,3.07-.49c.82,0,1.62.1,2.39.29.77.2,1.47.5,2.08.91s1.1.95,1.46,1.61c.36.66.54,1.45.54,2.37v10.29h-3.88v-2.12h-.14c-.25.47-.57.89-.98,1.25-.41.36-.9.65-1.48.85s-1.25.31-2,.31ZM256.79,24.96c.65,0,1.21-.13,1.7-.38.49-.25.87-.6,1.14-1.04s.41-.92.41-1.46v-1.65c-.12.09-.3.17-.55.25-.25.07-.52.14-.82.19s-.6.1-.89.15c-.29.05-.55.08-.78.11-.5.07-.94.19-1.33.36s-.68.38-.89.65c-.21.27-.31.61-.31,1.03,0,.39.1.72.3.99.2.27.47.47.82.61s.74.21,1.19.21ZM256.19,10.31l1.9-4.25h3.8l-2.83,4.25h-2.87Z"/>
    <path class="cls-3" d="M274.46,27.84c-1.54,0-2.87-.33-3.99-.99-1.12-.66-1.98-1.58-2.58-2.76-.61-1.18-.91-2.55-.91-4.12s.3-2.97.91-4.15c.61-1.18,1.47-2.1,2.58-2.76,1.12-.66,2.45-.99,3.99-.99.9,0,1.74.12,2.5.36.77.24,1.44.57,2.04,1.01s1.08.97,1.46,1.6.65,1.34.79,2.12l-3.81.71c-.08-.4-.21-.76-.38-1.07s-.38-.58-.63-.81c-.25-.22-.53-.39-.85-.51-.32-.12-.68-.18-1.07-.18-.73,0-1.34.2-1.84.59-.5.39-.87.94-1.12,1.64-.25.7-.38,1.51-.38,2.43s.12,1.7.38,2.41c.25.7.62,1.25,1.12,1.65.5.4,1.11.6,1.84.6.39,0,.75-.06,1.08-.18s.62-.3.88-.53.47-.51.64-.84.3-.7.37-1.11l3.81.7c-.15.81-.41,1.53-.79,2.17-.38.63-.87,1.18-1.46,1.63-.59.46-1.27.8-2.04,1.04s-1.61.36-2.52.36Z"/>
    <path class="cls-3" d="M286.15,10.26c-.62,0-1.15-.21-1.59-.62s-.66-.91-.66-1.49.22-1.08.66-1.49.97-.62,1.59-.62,1.15.21,1.59.62.66.91.66,1.49-.22,1.08-.66,1.49-.97.62-1.59.62ZM284.1,27.54v-15.29h4.1v15.29h-4.1Z"/>
    <path class="cls-3" d="M298.52,27.84c-1.53,0-2.86-.33-3.98-.99-1.12-.66-1.98-1.58-2.59-2.76-.61-1.18-.91-2.55-.91-4.12s.3-2.97.91-4.15c.61-1.18,1.47-2.1,2.59-2.76,1.12-.66,2.45-.99,3.98-.99s2.87.33,3.99.99c1.12.66,1.98,1.58,2.58,2.76.61,1.18.91,2.56.91,4.15s-.3,2.94-.91,4.12c-.61,1.18-1.47,2.1-2.58,2.76-1.12.66-2.45.99-3.99.99ZM298.52,24.61c.73,0,1.34-.2,1.83-.61.49-.41.86-.96,1.11-1.67.25-.71.37-1.5.37-2.39s-.12-1.7-.37-2.41c-.25-.7-.62-1.25-1.11-1.65-.49-.4-1.1-.6-1.83-.6s-1.34.2-1.83.6c-.49.4-.85.95-1.1,1.65-.25.7-.37,1.5-.37,2.41s.12,1.68.37,2.39c.25.71.61,1.26,1.1,1.67.49.41,1.1.61,1.83.61Z"/>
  </g>
  <g>
    <path class="cls-4" d="M69.25,52.19v-13.1h2.37l3.23,8.26c.08.19.16.43.26.72s.2.61.31.95.21.68.31,1.01.19.65.26.94h-.37c.08-.27.17-.57.27-.9s.2-.67.31-1.01.21-.66.31-.96.19-.55.26-.75l3.18-8.26h2.38v13.1h-1.64v-7.48c0-.27,0-.58,0-.92s0-.71.02-1.09.02-.77.03-1.16.02-.77.02-1.14h.14c-.12.4-.25.82-.39,1.23s-.27.82-.4,1.21-.26.75-.37,1.07-.22.59-.3.8l-2.93,7.48h-1.45l-2.97-7.48c-.08-.21-.18-.46-.29-.78s-.23-.66-.36-1.05-.27-.79-.41-1.21-.28-.85-.43-1.28h.16c.01.33.02.68.03,1.06s.02.77.02,1.16.01.76.02,1.12,0,.68,0,.97v7.48h-1.59Z"/>
    <path class="cls-4" d="M88.06,52.42c-.62,0-1.19-.12-1.69-.35s-.91-.58-1.21-1.03-.45-1-.45-1.64c0-.56.11-1.02.33-1.37s.52-.63.89-.83.78-.35,1.23-.45.91-.18,1.36-.24c.59-.08,1.06-.13,1.43-.18s.64-.11.82-.21.27-.27.27-.51v-.05c0-.41-.08-.76-.23-1.04s-.38-.5-.69-.65-.69-.23-1.14-.23-.87.07-1.2.22-.6.33-.81.55-.36.44-.47.67l-1.52-.5c.25-.6.59-1.07,1.02-1.4s.9-.58,1.42-.72,1.03-.21,1.53-.21c.33,0,.7.04,1.12.12s.82.24,1.21.47.71.58.97,1.04.38,1.07.38,1.84v6.48h-1.56v-1.34h-.11c-.11.23-.29.46-.54.71s-.57.45-.96.61-.87.25-1.42.25ZM88.34,51.02c.59,0,1.08-.11,1.49-.34s.71-.53.92-.89.32-.75.32-1.15v-1.36c-.06.08-.21.14-.42.21s-.46.12-.74.16-.55.09-.81.12-.47.06-.62.08c-.38.05-.74.13-1.07.24s-.6.28-.8.5-.3.52-.3.89c0,.34.09.62.26.85s.42.4.72.52.65.18,1.05.18Z"/>
    <path class="cls-4" d="M99.29,42.37v1.35h-5.08v-1.35h5.08ZM95.68,40.03h1.58v9.62c0,.44.09.76.27.96s.48.3.89.3c.1,0,.23-.01.38-.04s.3-.05.43-.07l.33,1.34c-.16.06-.35.1-.56.13s-.41.04-.62.04c-.85,0-1.51-.22-1.99-.67s-.71-1.07-.71-1.88v-9.74Z"/>
    <path class="cls-4" d="M105.26,52.4c-.95,0-1.77-.21-2.46-.63s-1.22-1.01-1.59-1.77-.56-1.64-.56-2.65.18-1.9.54-2.66.88-1.37,1.54-1.8,1.44-.65,2.33-.65c.52,0,1.04.09,1.54.26s.97.45,1.38.83.74.89.99,1.52.37,1.39.37,2.3v.66h-7.63v-1.34h6.78l-.74.49c0-.64-.1-1.22-.3-1.72s-.5-.89-.9-1.18-.89-.43-1.49-.43-1.1.14-1.52.43-.74.67-.97,1.13-.33.97-.33,1.5v.89c0,.73.13,1.34.38,1.85s.6.89,1.06,1.15.98.39,1.58.39c.39,0,.74-.06,1.05-.17s.59-.28.82-.51.4-.5.53-.84l1.53.42c-.15.49-.41.93-.77,1.3s-.81.67-1.35.88-1.14.32-1.81.32Z"/>
    <path class="cls-4" d="M111.63,52.19v-9.83h1.53v1.51h.11c.18-.5.51-.9.97-1.2s.99-.45,1.58-.45c.12,0,.26,0,.42,0s.29.01.38.02v1.59s-.16-.03-.35-.05-.39-.04-.6-.04c-.47,0-.89.1-1.26.29s-.66.47-.87.81-.32.74-.32,1.18v6.15h-1.58Z"/>
    <path class="cls-4" d="M119.38,40.76c-.3,0-.56-.1-.77-.31s-.33-.45-.33-.74.11-.54.33-.74.47-.3.77-.3.57.1.78.3.33.45.33.74-.11.53-.33.74-.48.31-.78.31ZM118.58,52.19v-9.83h1.58v9.83h-1.58Z"/>
    <path class="cls-4" d="M125.69,52.42c-.62,0-1.19-.12-1.69-.35s-.91-.58-1.21-1.03-.45-1-.45-1.64c0-.56.11-1.02.33-1.37s.52-.63.89-.83.78-.35,1.23-.45.91-.18,1.36-.24c.59-.08,1.06-.13,1.43-.18s.64-.11.82-.21.27-.27.27-.51v-.05c0-.41-.08-.76-.23-1.04s-.38-.5-.69-.65-.69-.23-1.14-.23-.87.07-1.2.22-.6.33-.81.55-.36.44-.47.67l-1.52-.5c.25-.6.59-1.07,1.02-1.4s.9-.58,1.42-.72,1.03-.21,1.53-.21c.33,0,.7.04,1.12.12s.82.24,1.21.47.71.58.97,1.04.38,1.07.38,1.84v6.48h-1.56v-1.34h-.11c-.11.23-.29.46-.54.71s-.57.45-.96.61-.87.25-1.42.25ZM125.96,51.02c.59,0,1.08-.11,1.49-.34s.71-.53.92-.89.32-.75.32-1.15v-1.36c-.06.08-.21.14-.42.21s-.46.12-.74.16-.55.09-.81.12-.47.06-.62.08c-.38.05-.74.13-1.07.24s-.6.28-.8.5-.3.52-.3.89c0,.34.09.62.26.85s.42.4.72.52.65.18,1.05.18Z"/>
    <path class="cls-4" d="M134.63,39.1v13.1h-1.58v-13.1h1.58Z"/>
    <path class="cls-4" d="M146.15,52.4c-.81,0-1.54-.21-2.16-.62s-1.12-1-1.47-1.77-.53-1.66-.53-2.71.18-1.94.53-2.69.85-1.34,1.47-1.75,1.35-.62,2.16-.62c.64,0,1.15.11,1.52.32s.66.45.87.72.36.49.46.66h.12v-4.84h1.58v13.1h-1.53v-1.52h-.18c-.11.18-.26.41-.47.68s-.5.52-.88.73-.88.32-1.51.32ZM146.39,50.99c.6,0,1.1-.16,1.51-.47s.72-.75.93-1.3.32-1.2.32-1.92-.1-1.36-.31-1.9-.52-.96-.93-1.27-.92-.46-1.52-.46-1.14.16-1.55.48-.72.76-.93,1.3-.31,1.16-.31,1.84.1,1.31.31,1.87.52,1,.94,1.34.93.5,1.54.5Z"/>
    <path class="cls-4" d="M157.62,52.4c-.95,0-1.77-.21-2.46-.63s-1.22-1.01-1.59-1.77-.56-1.64-.56-2.65.18-1.9.54-2.66.88-1.37,1.54-1.8,1.44-.65,2.33-.65c.52,0,1.04.09,1.54.26s.97.45,1.38.83.74.89.99,1.52.37,1.39.37,2.3v.66h-7.63v-1.34h6.78l-.74.49c0-.64-.1-1.22-.3-1.72s-.5-.89-.9-1.18-.89-.43-1.49-.43-1.1.14-1.52.43-.74.67-.97,1.13-.33.97-.33,1.5v.89c0,.73.13,1.34.38,1.85s.6.89,1.06,1.15.98.39,1.58.39c.39,0,.74-.06,1.05-.17s.59-.28.82-.51.4-.5.53-.84l1.53.42c-.15.49-.41.93-.77,1.3s-.81.67-1.35.88-1.14.32-1.81.32Z"/>
    <path class="cls-4" d="M168.11,52.19l4.75-13.1h1.93l4.82,13.1h-1.76l-2.78-7.77c-.17-.48-.37-1.08-.59-1.8-.23-.72-.5-1.63-.82-2.75h.32c-.32,1.12-.59,2.05-.82,2.78s-.42,1.32-.58,1.76l-2.7,7.77h-1.78ZM170.51,48.54v-1.46h6.72v1.46h-6.72Z"/>
    <path class="cls-4" d="M181.47,55.87v-13.5h1.53v1.57h.18c.11-.18.27-.4.47-.66s.49-.5.86-.72.88-.32,1.52-.32c.82,0,1.54.21,2.17.62.62.41,1.11.99,1.47,1.75.35.76.53,1.66.53,2.69s-.18,1.95-.53,2.71-.84,1.35-1.46,1.77c-.62.42-1.35.62-2.17.62-.62,0-1.12-.11-1.5-.32s-.67-.46-.88-.73-.36-.5-.47-.68h-.12v5.19h-1.58ZM185.79,50.99c.62,0,1.13-.17,1.54-.5.41-.33.72-.78.93-1.34.21-.56.31-1.18.31-1.87s-.1-1.29-.31-1.84-.51-.98-.93-1.3c-.41-.32-.93-.48-1.55-.48s-1.11.15-1.52.46-.72.73-.93,1.27c-.21.54-.31,1.18-.31,1.9s.11,1.37.32,1.92.52.99.94,1.3c.41.31.92.47,1.51.47Z"/>
    <path class="cls-4" d="M196.49,52.4c-.89,0-1.67-.21-2.34-.63s-1.19-1.01-1.57-1.78-.56-1.65-.56-2.65.19-1.92.56-2.69.9-1.36,1.57-1.78,1.45-.63,2.34-.63,1.68.21,2.36.63,1.2,1.01,1.57,1.78.56,1.66.56,2.69-.19,1.89-.56,2.65-.9,1.35-1.57,1.78-1.46.63-2.36.63ZM196.49,50.99c.66,0,1.21-.17,1.63-.51s.74-.79.95-1.34.31-1.15.31-1.8-.1-1.26-.31-1.82-.52-1.01-.95-1.35-.97-.51-1.63-.51-1.2.17-1.62.51-.74.79-.94,1.35-.31,1.16-.31,1.82.1,1.24.31,1.8.52,1,.94,1.34.96.51,1.62.51Z"/>
    <path class="cls-4" d="M204.08,40.76c-.3,0-.56-.1-.77-.31s-.33-.45-.33-.74.11-.54.33-.74.47-.3.77-.3.57.1.78.3.33.45.33.74-.11.53-.33.74-.48.31-.78.31ZM203.28,52.19v-9.83h1.58v9.83h-1.58Z"/>
    <path class="cls-4" d="M211.64,52.4c-.89,0-1.67-.21-2.34-.63s-1.19-1.01-1.57-1.78-.56-1.65-.56-2.65.19-1.92.56-2.69.9-1.36,1.57-1.78,1.45-.63,2.34-.63,1.68.21,2.36.63,1.2,1.01,1.57,1.78.56,1.66.56,2.69-.19,1.89-.56,2.65-.9,1.35-1.57,1.78-1.46.63-2.36.63ZM211.64,50.99c.66,0,1.21-.17,1.63-.51s.74-.79.95-1.34.31-1.15.31-1.8-.1-1.26-.31-1.82-.52-1.01-.95-1.35-.97-.51-1.63-.51-1.2.17-1.62.51-.74.79-.94,1.35-.31,1.16-.31,1.82.1,1.24.31,1.8.52,1,.94,1.34.96.51,1.62.51Z"/>
  </g>
</svg>